<mxfile host="65bd71144e">
    <diagram id="4Hq1jO74MQTI8Gb2BI_a" name="Halaman-1">
        <mxGraphModel dx="2025" dy="718" grid="1" gridSize="10" guides="1" tooltips="1" connect="1" arrows="1" fold="1" page="1" pageScale="1" pageWidth="827" pageHeight="1169" math="0" shadow="0">
            <root>
                <mxCell id="0"/>
                <mxCell id="1" parent="0"/>
                <mxCell id="hqZc5M0iSS_VsKJCfwx_-16" style="edgeStyle=orthogonalEdgeStyle;rounded=0;orthogonalLoop=1;jettySize=auto;html=1;exitX=1;exitY=0.5;exitDx=0;exitDy=0;entryX=0;entryY=0.5;entryDx=0;entryDy=0;entryPerimeter=0;startArrow=none;" parent="1" source="hqZc5M0iSS_VsKJCfwx_-20" target="hqZc5M0iSS_VsKJCfwx_-3" edge="1">
                    <mxGeometry relative="1" as="geometry"/>
                </mxCell>
                <mxCell id="hqZc5M0iSS_VsKJCfwx_-32" style="edgeStyle=orthogonalEdgeStyle;rounded=0;orthogonalLoop=1;jettySize=auto;html=1;exitX=0.5;exitY=0;exitDx=0;exitDy=0;entryX=0.5;entryY=1;entryDx=0;entryDy=0;" parent="1" source="hqZc5M0iSS_VsKJCfwx_-1" target="hqZc5M0iSS_VsKJCfwx_-25" edge="1">
                    <mxGeometry relative="1" as="geometry"/>
                </mxCell>
                <mxCell id="hqZc5M0iSS_VsKJCfwx_-1" value="Web Server" style="whiteSpace=wrap;html=1;aspect=fixed;" parent="1" vertex="1">
                    <mxGeometry x="225" y="420" width="100" height="100" as="geometry"/>
                </mxCell>
                <mxCell id="hqZc5M0iSS_VsKJCfwx_-23" style="edgeStyle=orthogonalEdgeStyle;rounded=0;orthogonalLoop=1;jettySize=auto;html=1;exitX=0.5;exitY=1;exitDx=0;exitDy=0;entryX=0.5;entryY=0;entryDx=0;entryDy=0;" parent="1" source="hqZc5M0iSS_VsKJCfwx_-2" target="hqZc5M0iSS_VsKJCfwx_-5" edge="1">
                    <mxGeometry relative="1" as="geometry"/>
                </mxCell>
                <mxCell id="hqZc5M0iSS_VsKJCfwx_-2" value="Micro Controller" style="whiteSpace=wrap;html=1;aspect=fixed;" parent="1" vertex="1">
                    <mxGeometry x="-50" y="260" width="100" height="100" as="geometry"/>
                </mxCell>
                <mxCell id="hqZc5M0iSS_VsKJCfwx_-3" value="DB" style="shape=cylinder3;whiteSpace=wrap;html=1;boundedLbl=1;backgroundOutline=1;size=15;" parent="1" vertex="1">
                    <mxGeometry x="440" y="420" width="75" height="100" as="geometry"/>
                </mxCell>
                <mxCell id="hqZc5M0iSS_VsKJCfwx_-24" style="edgeStyle=orthogonalEdgeStyle;rounded=0;orthogonalLoop=1;jettySize=auto;html=1;exitX=1;exitY=0.5;exitDx=0;exitDy=0;entryX=0;entryY=0.5;entryDx=0;entryDy=0;startArrow=none;" parent="1" source="hqZc5M0iSS_VsKJCfwx_-26" target="hqZc5M0iSS_VsKJCfwx_-1" edge="1">
                    <mxGeometry relative="1" as="geometry"/>
                </mxCell>
                <mxCell id="hqZc5M0iSS_VsKJCfwx_-5" value="(POST Request)&lt;br&gt;Token Controller" style="rounded=1;whiteSpace=wrap;html=1;" parent="1" vertex="1">
                    <mxGeometry x="-59.5" y="440" width="120" height="60" as="geometry"/>
                </mxCell>
                <mxCell id="hqZc5M0iSS_VsKJCfwx_-12" style="edgeStyle=orthogonalEdgeStyle;rounded=0;orthogonalLoop=1;jettySize=auto;html=1;exitX=0.5;exitY=1;exitDx=0;exitDy=0;entryX=0.5;entryY=0;entryDx=0;entryDy=0;startArrow=none;" parent="1" source="hqZc5M0iSS_VsKJCfwx_-8" target="hqZc5M0iSS_VsKJCfwx_-2" edge="1">
                    <mxGeometry relative="1" as="geometry"/>
                </mxCell>
                <mxCell id="hqZc5M0iSS_VsKJCfwx_-6" value="WiFI" style="ellipse;whiteSpace=wrap;html=1;" parent="1" vertex="1">
                    <mxGeometry x="-60" y="100" width="120" height="80" as="geometry"/>
                </mxCell>
                <mxCell id="hqZc5M0iSS_VsKJCfwx_-17" value="Send Request" style="text;html=1;strokeColor=none;fillColor=default;align=center;verticalAlign=middle;whiteSpace=wrap;rounded=0;" parent="1" vertex="1">
                    <mxGeometry x="-60.5" y="380" width="120" height="30" as="geometry"/>
                </mxCell>
                <mxCell id="hqZc5M0iSS_VsKJCfwx_-18" value="Send Response" style="text;html=1;align=center;verticalAlign=middle;whiteSpace=wrap;rounded=0;fillColor=default;" parent="1" vertex="1">
                    <mxGeometry x="205" y="360" width="120" height="30" as="geometry"/>
                </mxCell>
                <mxCell id="hqZc5M0iSS_VsKJCfwx_-8" value="Connect SSID Wifi" style="text;html=1;align=center;verticalAlign=middle;whiteSpace=wrap;rounded=0;fillColor=default;" parent="1" vertex="1">
                    <mxGeometry x="-59.5" y="200" width="119" height="30" as="geometry"/>
                </mxCell>
                <mxCell id="hqZc5M0iSS_VsKJCfwx_-19" value="" style="edgeStyle=orthogonalEdgeStyle;rounded=0;orthogonalLoop=1;jettySize=auto;html=1;exitX=0.5;exitY=1;exitDx=0;exitDy=0;entryX=0.5;entryY=0;entryDx=0;entryDy=0;endArrow=none;" parent="1" source="hqZc5M0iSS_VsKJCfwx_-6" target="hqZc5M0iSS_VsKJCfwx_-8" edge="1">
                    <mxGeometry relative="1" as="geometry">
                        <mxPoint y="180" as="sourcePoint"/>
                        <mxPoint y="260" as="targetPoint"/>
                    </mxGeometry>
                </mxCell>
                <mxCell id="hqZc5M0iSS_VsKJCfwx_-20" value="Get Data" style="text;html=1;align=center;verticalAlign=middle;whiteSpace=wrap;rounded=0;fillColor=default;" parent="1" vertex="1">
                    <mxGeometry x="341" y="455" width="70" height="30" as="geometry"/>
                </mxCell>
                <mxCell id="hqZc5M0iSS_VsKJCfwx_-21" value="" style="edgeStyle=orthogonalEdgeStyle;rounded=0;orthogonalLoop=1;jettySize=auto;html=1;exitX=1;exitY=0.5;exitDx=0;exitDy=0;entryX=0;entryY=0.5;entryDx=0;entryDy=0;entryPerimeter=0;endArrow=none;" parent="1" source="hqZc5M0iSS_VsKJCfwx_-1" target="hqZc5M0iSS_VsKJCfwx_-20" edge="1">
                    <mxGeometry relative="1" as="geometry">
                        <mxPoint x="410" y="470" as="sourcePoint"/>
                        <mxPoint x="569.9999999999995" y="470" as="targetPoint"/>
                    </mxGeometry>
                </mxCell>
                <mxCell id="hqZc5M0iSS_VsKJCfwx_-37" style="edgeStyle=orthogonalEdgeStyle;rounded=0;orthogonalLoop=1;jettySize=auto;html=1;exitX=0;exitY=0.5;exitDx=0;exitDy=0;entryX=1;entryY=0.5;entryDx=0;entryDy=0;" parent="1" source="hqZc5M0iSS_VsKJCfwx_-25" target="hqZc5M0iSS_VsKJCfwx_-2" edge="1">
                    <mxGeometry relative="1" as="geometry"/>
                </mxCell>
                <mxCell id="hqZc5M0iSS_VsKJCfwx_-25" value="&lt;div style=&quot;&quot;&gt;&lt;span style=&quot;background-color: initial;&quot;&gt;(Detail Settings)&lt;/span&gt;&lt;/div&gt;&lt;div style=&quot;text-align: left;&quot;&gt;&lt;span style=&quot;background-color: initial;&quot;&gt;- Password Keypad&lt;/span&gt;&lt;/div&gt;&lt;div style=&quot;text-align: left;&quot;&gt;&lt;span style=&quot;background-color: initial;&quot;&gt;- Close Delay&lt;/span&gt;&lt;/div&gt;" style="rounded=1;whiteSpace=wrap;html=1;" parent="1" vertex="1">
                    <mxGeometry x="215" y="280" width="120" height="60" as="geometry"/>
                </mxCell>
                <mxCell id="hqZc5M0iSS_VsKJCfwx_-28" style="edgeStyle=orthogonalEdgeStyle;rounded=0;orthogonalLoop=1;jettySize=auto;html=1;" parent="1" source="hqZc5M0iSS_VsKJCfwx_-26" target="hqZc5M0iSS_VsKJCfwx_-1" edge="1">
                    <mxGeometry relative="1" as="geometry"/>
                </mxCell>
                <mxCell id="hqZc5M0iSS_VsKJCfwx_-26" value="Send Request" style="text;html=1;strokeColor=none;fillColor=default;align=center;verticalAlign=middle;whiteSpace=wrap;rounded=0;" parent="1" vertex="1">
                    <mxGeometry x="76.5" y="455" width="120" height="30" as="geometry"/>
                </mxCell>
                <mxCell id="hqZc5M0iSS_VsKJCfwx_-27" value="" style="edgeStyle=orthogonalEdgeStyle;rounded=0;orthogonalLoop=1;jettySize=auto;html=1;exitX=1;exitY=0.5;exitDx=0;exitDy=0;entryX=0;entryY=0.5;entryDx=0;entryDy=0;endArrow=none;" parent="1" source="hqZc5M0iSS_VsKJCfwx_-5" target="hqZc5M0iSS_VsKJCfwx_-26" edge="1">
                    <mxGeometry relative="1" as="geometry">
                        <mxPoint x="60.5" y="470" as="sourcePoint"/>
                        <mxPoint x="200" y="470" as="targetPoint"/>
                    </mxGeometry>
                </mxCell>
                <mxCell id="hqZc5M0iSS_VsKJCfwx_-29" value="Send Response" style="text;html=1;align=center;verticalAlign=middle;whiteSpace=wrap;rounded=0;fillColor=default;" parent="1" vertex="1">
                    <mxGeometry x="70" y="295" width="120" height="30" as="geometry"/>
                </mxCell>
                <mxCell id="hqZc5M0iSS_VsKJCfwx_-39" value="&lt;font style=&quot;font-size: 18px;&quot;&gt;&lt;b&gt;Flow First Connect&lt;/b&gt;&lt;/font&gt;" style="text;html=1;strokeColor=none;fillColor=none;align=center;verticalAlign=middle;whiteSpace=wrap;rounded=0;" parent="1" vertex="1">
                    <mxGeometry x="-94.5" y="50" width="190" height="30" as="geometry"/>
                </mxCell>
                <mxCell id="hqZc5M0iSS_VsKJCfwx_-84" style="edgeStyle=orthogonalEdgeStyle;rounded=0;orthogonalLoop=1;jettySize=auto;html=1;exitX=0.5;exitY=0.5;exitDx=0;exitDy=0;exitPerimeter=0;entryX=0;entryY=0.5;entryDx=0;entryDy=0;fontSize=13;" parent="1" source="hqZc5M0iSS_VsKJCfwx_-40" target="hqZc5M0iSS_VsKJCfwx_-80" edge="1">
                    <mxGeometry relative="1" as="geometry"/>
                </mxCell>
                <mxCell id="hqZc5M0iSS_VsKJCfwx_-40" value="User" style="shape=umlActor;verticalLabelPosition=bottom;verticalAlign=top;html=1;outlineConnect=0;fontSize=18;fillColor=none;" parent="1" vertex="1">
                    <mxGeometry x="-240" y="869" width="30" height="60" as="geometry"/>
                </mxCell>
                <mxCell id="hqZc5M0iSS_VsKJCfwx_-60" style="edgeStyle=orthogonalEdgeStyle;rounded=0;orthogonalLoop=1;jettySize=auto;html=1;exitX=1;exitY=0.5;exitDx=0;exitDy=0;entryX=0;entryY=0.5;entryDx=0;entryDy=0;entryPerimeter=0;startArrow=none;" parent="1" source="hqZc5M0iSS_VsKJCfwx_-70" target="hqZc5M0iSS_VsKJCfwx_-65" edge="1">
                    <mxGeometry relative="1" as="geometry"/>
                </mxCell>
                <mxCell id="hqZc5M0iSS_VsKJCfwx_-61" style="edgeStyle=orthogonalEdgeStyle;rounded=0;orthogonalLoop=1;jettySize=auto;html=1;exitX=0.5;exitY=0;exitDx=0;exitDy=0;entryX=0.5;entryY=1;entryDx=0;entryDy=0;" parent="1" source="hqZc5M0iSS_VsKJCfwx_-62" target="hqZc5M0iSS_VsKJCfwx_-73" edge="1">
                    <mxGeometry relative="1" as="geometry"/>
                </mxCell>
                <mxCell id="hqZc5M0iSS_VsKJCfwx_-62" value="Web Server" style="whiteSpace=wrap;html=1;aspect=fixed;" parent="1" vertex="1">
                    <mxGeometry x="398.5" y="1010" width="100" height="100" as="geometry"/>
                </mxCell>
                <mxCell id="hqZc5M0iSS_VsKJCfwx_-63" style="edgeStyle=orthogonalEdgeStyle;rounded=0;orthogonalLoop=1;jettySize=auto;html=1;exitX=0.5;exitY=1;exitDx=0;exitDy=0;entryX=0.5;entryY=0;entryDx=0;entryDy=0;" parent="1" source="hqZc5M0iSS_VsKJCfwx_-64" target="hqZc5M0iSS_VsKJCfwx_-67" edge="1">
                    <mxGeometry relative="1" as="geometry"/>
                </mxCell>
                <mxCell id="hqZc5M0iSS_VsKJCfwx_-64" value="Micro Controller" style="whiteSpace=wrap;html=1;aspect=fixed;" parent="1" vertex="1">
                    <mxGeometry x="123.5" y="850" width="100" height="100" as="geometry"/>
                </mxCell>
                <mxCell id="hqZc5M0iSS_VsKJCfwx_-65" value="DB" style="shape=cylinder3;whiteSpace=wrap;html=1;boundedLbl=1;backgroundOutline=1;size=15;" parent="1" vertex="1">
                    <mxGeometry x="613.5" y="1010" width="75" height="100" as="geometry"/>
                </mxCell>
                <mxCell id="hqZc5M0iSS_VsKJCfwx_-66" style="edgeStyle=orthogonalEdgeStyle;rounded=0;orthogonalLoop=1;jettySize=auto;html=1;exitX=1;exitY=0.5;exitDx=0;exitDy=0;entryX=0;entryY=0.5;entryDx=0;entryDy=0;startArrow=none;" parent="1" source="hqZc5M0iSS_VsKJCfwx_-75" target="hqZc5M0iSS_VsKJCfwx_-62" edge="1">
                    <mxGeometry relative="1" as="geometry"/>
                </mxCell>
                <mxCell id="hqZc5M0iSS_VsKJCfwx_-67" value="&lt;div style=&quot;text-align: center;&quot;&gt;&lt;span style=&quot;background-color: initial;&quot;&gt;&amp;nbsp; &amp;nbsp; &amp;nbsp;(POST Request)&lt;/span&gt;&lt;/div&gt;- Token Controller&lt;br&gt;- Pin / ID RFID" style="rounded=1;whiteSpace=wrap;html=1;align=left;" parent="1" vertex="1">
                    <mxGeometry x="114" y="1030" width="120" height="60" as="geometry"/>
                </mxCell>
                <mxCell id="hqZc5M0iSS_VsKJCfwx_-68" value="Send Request" style="text;html=1;strokeColor=none;fillColor=default;align=center;verticalAlign=middle;whiteSpace=wrap;rounded=0;" parent="1" vertex="1">
                    <mxGeometry x="113" y="970" width="120" height="30" as="geometry"/>
                </mxCell>
                <mxCell id="hqZc5M0iSS_VsKJCfwx_-69" value="Send Response" style="text;html=1;align=center;verticalAlign=middle;whiteSpace=wrap;rounded=0;fillColor=default;" parent="1" vertex="1">
                    <mxGeometry x="378.5" y="950" width="120" height="30" as="geometry"/>
                </mxCell>
                <mxCell id="hqZc5M0iSS_VsKJCfwx_-70" value="Get Data" style="text;html=1;align=center;verticalAlign=middle;whiteSpace=wrap;rounded=0;fillColor=default;" parent="1" vertex="1">
                    <mxGeometry x="514.5" y="1045" width="70" height="30" as="geometry"/>
                </mxCell>
                <mxCell id="hqZc5M0iSS_VsKJCfwx_-71" value="" style="edgeStyle=orthogonalEdgeStyle;rounded=0;orthogonalLoop=1;jettySize=auto;html=1;exitX=1;exitY=0.5;exitDx=0;exitDy=0;entryX=0;entryY=0.5;entryDx=0;entryDy=0;entryPerimeter=0;endArrow=none;" parent="1" source="hqZc5M0iSS_VsKJCfwx_-62" target="hqZc5M0iSS_VsKJCfwx_-70" edge="1">
                    <mxGeometry relative="1" as="geometry">
                        <mxPoint x="583.5" y="1060" as="sourcePoint"/>
                        <mxPoint x="743.4999999999995" y="1060" as="targetPoint"/>
                    </mxGeometry>
                </mxCell>
                <mxCell id="hqZc5M0iSS_VsKJCfwx_-89" style="edgeStyle=orthogonalEdgeStyle;rounded=0;orthogonalLoop=1;jettySize=auto;html=1;exitX=0.5;exitY=0;exitDx=0;exitDy=0;entryX=1;entryY=0.5;entryDx=0;entryDy=0;fontSize=13;" parent="1" source="hqZc5M0iSS_VsKJCfwx_-73" target="hqZc5M0iSS_VsKJCfwx_-86" edge="1">
                    <mxGeometry relative="1" as="geometry"/>
                </mxCell>
                <mxCell id="hqZc5M0iSS_VsKJCfwx_-73" value="&lt;div style=&quot;&quot;&gt;&lt;span style=&quot;background-color: initial;&quot;&gt;(Result Data)&lt;/span&gt;&lt;/div&gt;&lt;div style=&quot;text-align: left;&quot;&gt;&lt;span style=&quot;background-color: initial;&quot;&gt;- Status (True/False)&lt;/span&gt;&lt;/div&gt;" style="rounded=1;whiteSpace=wrap;html=1;" parent="1" vertex="1">
                    <mxGeometry x="388.5" y="870" width="120" height="60" as="geometry"/>
                </mxCell>
                <mxCell id="hqZc5M0iSS_VsKJCfwx_-74" style="edgeStyle=orthogonalEdgeStyle;rounded=0;orthogonalLoop=1;jettySize=auto;html=1;" parent="1" source="hqZc5M0iSS_VsKJCfwx_-75" target="hqZc5M0iSS_VsKJCfwx_-62" edge="1">
                    <mxGeometry relative="1" as="geometry"/>
                </mxCell>
                <mxCell id="hqZc5M0iSS_VsKJCfwx_-75" value="Send Request" style="text;html=1;strokeColor=none;fillColor=default;align=center;verticalAlign=middle;whiteSpace=wrap;rounded=0;" parent="1" vertex="1">
                    <mxGeometry x="250" y="1045" width="120" height="30" as="geometry"/>
                </mxCell>
                <mxCell id="hqZc5M0iSS_VsKJCfwx_-76" value="" style="edgeStyle=orthogonalEdgeStyle;rounded=0;orthogonalLoop=1;jettySize=auto;html=1;exitX=1;exitY=0.5;exitDx=0;exitDy=0;entryX=0;entryY=0.5;entryDx=0;entryDy=0;endArrow=none;" parent="1" source="hqZc5M0iSS_VsKJCfwx_-67" target="hqZc5M0iSS_VsKJCfwx_-75" edge="1">
                    <mxGeometry relative="1" as="geometry">
                        <mxPoint x="234" y="1060" as="sourcePoint"/>
                        <mxPoint x="373.5" y="1060" as="targetPoint"/>
                    </mxGeometry>
                </mxCell>
                <mxCell id="hqZc5M0iSS_VsKJCfwx_-77" value="Send Response" style="text;html=1;align=center;verticalAlign=middle;whiteSpace=wrap;rounded=0;" parent="1" vertex="1">
                    <mxGeometry x="56.5" y="790" width="120" height="30" as="geometry"/>
                </mxCell>
                <mxCell id="hqZc5M0iSS_VsKJCfwx_-85" style="edgeStyle=orthogonalEdgeStyle;rounded=0;orthogonalLoop=1;jettySize=auto;html=1;exitX=1;exitY=0.5;exitDx=0;exitDy=0;entryX=0;entryY=0.5;entryDx=0;entryDy=0;fontSize=13;" parent="1" source="hqZc5M0iSS_VsKJCfwx_-80" target="hqZc5M0iSS_VsKJCfwx_-64" edge="1">
                    <mxGeometry relative="1" as="geometry"/>
                </mxCell>
                <mxCell id="hqZc5M0iSS_VsKJCfwx_-80" value="&lt;font style=&quot;font-size: 13px&quot;&gt;Scan RFID / Enter Pin Keypad&lt;/font&gt;" style="rounded=1;whiteSpace=wrap;html=1;fontSize=18;fillColor=none;" parent="1" vertex="1">
                    <mxGeometry x="-97.5" y="870" width="120" height="60" as="geometry"/>
                </mxCell>
                <mxCell id="hqZc5M0iSS_VsKJCfwx_-90" style="edgeStyle=orthogonalEdgeStyle;rounded=0;orthogonalLoop=1;jettySize=auto;html=1;exitX=0;exitY=0.5;exitDx=0;exitDy=0;entryX=0.5;entryY=1;entryDx=0;entryDy=0;fontSize=13;" parent="1" source="hqZc5M0iSS_VsKJCfwx_-86" target="hqZc5M0iSS_VsKJCfwx_-87" edge="1">
                    <mxGeometry relative="1" as="geometry"/>
                </mxCell>
                <mxCell id="hqZc5M0iSS_VsKJCfwx_-102" style="edgeStyle=orthogonalEdgeStyle;rounded=0;orthogonalLoop=1;jettySize=auto;html=1;exitX=0.5;exitY=0;exitDx=0;exitDy=0;fontSize=13;" parent="1" source="hqZc5M0iSS_VsKJCfwx_-86" target="hqZc5M0iSS_VsKJCfwx_-88" edge="1">
                    <mxGeometry relative="1" as="geometry"/>
                </mxCell>
                <mxCell id="hqZc5M0iSS_VsKJCfwx_-86" value="" style="rhombus;whiteSpace=wrap;html=1;fontSize=13;fillColor=none;" parent="1" vertex="1">
                    <mxGeometry x="283.5" y="770" width="80" height="80" as="geometry"/>
                </mxCell>
                <mxCell id="hqZc5M0iSS_VsKJCfwx_-91" style="edgeStyle=orthogonalEdgeStyle;rounded=0;orthogonalLoop=1;jettySize=auto;html=1;exitX=0.5;exitY=0;exitDx=0;exitDy=0;fontSize=13;" parent="1" source="hqZc5M0iSS_VsKJCfwx_-87" target="hqZc5M0iSS_VsKJCfwx_-65" edge="1">
                    <mxGeometry relative="1" as="geometry"/>
                </mxCell>
                <mxCell id="hqZc5M0iSS_VsKJCfwx_-103" style="edgeStyle=orthogonalEdgeStyle;rounded=0;orthogonalLoop=1;jettySize=auto;html=1;exitX=0.25;exitY=1;exitDx=0;exitDy=0;entryX=0.47;entryY=0.2;entryDx=0;entryDy=0;entryPerimeter=0;fontSize=13;" parent="1" source="hqZc5M0iSS_VsKJCfwx_-87" target="hqZc5M0iSS_VsKJCfwx_-64" edge="1">
                    <mxGeometry relative="1" as="geometry"/>
                </mxCell>
                <mxCell id="hqZc5M0iSS_VsKJCfwx_-87" value="Log Rejected" style="rounded=1;whiteSpace=wrap;html=1;fontSize=13;fillColor=none;" parent="1" vertex="1">
                    <mxGeometry x="143.5" y="740" width="106.5" height="30" as="geometry"/>
                </mxCell>
                <mxCell id="hqZc5M0iSS_VsKJCfwx_-92" style="edgeStyle=orthogonalEdgeStyle;rounded=0;orthogonalLoop=1;jettySize=auto;html=1;exitX=0.5;exitY=0;exitDx=0;exitDy=0;fontSize=13;" parent="1" source="hqZc5M0iSS_VsKJCfwx_-88" edge="1">
                    <mxGeometry relative="1" as="geometry">
                        <mxPoint x="475.55555555555566" y="720" as="targetPoint"/>
                    </mxGeometry>
                </mxCell>
                <mxCell id="hqZc5M0iSS_VsKJCfwx_-104" style="edgeStyle=orthogonalEdgeStyle;rounded=0;orthogonalLoop=1;jettySize=auto;html=1;exitX=0.5;exitY=0;exitDx=0;exitDy=0;entryX=0.25;entryY=0;entryDx=0;entryDy=0;fontSize=13;" parent="1" source="hqZc5M0iSS_VsKJCfwx_-88" target="hqZc5M0iSS_VsKJCfwx_-87" edge="1">
                    <mxGeometry relative="1" as="geometry"/>
                </mxCell>
                <mxCell id="hqZc5M0iSS_VsKJCfwx_-88" value="Log Accepted" style="rounded=1;whiteSpace=wrap;html=1;fontSize=13;fillColor=none;" parent="1" vertex="1">
                    <mxGeometry x="423.75" y="740" width="106.5" height="30" as="geometry"/>
                </mxCell>
                <mxCell id="hqZc5M0iSS_VsKJCfwx_-93" value="False" style="text;html=1;align=center;verticalAlign=middle;whiteSpace=wrap;rounded=0;fillColor=default;" parent="1" vertex="1">
                    <mxGeometry x="223.5" y="795" width="33.5" height="30" as="geometry"/>
                </mxCell>
                <mxCell id="hqZc5M0iSS_VsKJCfwx_-96" value="True" style="text;html=1;align=center;verticalAlign=middle;whiteSpace=wrap;rounded=0;fillColor=default;" parent="1" vertex="1">
                    <mxGeometry x="368" y="740" width="33.5" height="30" as="geometry"/>
                </mxCell>
                <mxCell id="hqZc5M0iSS_VsKJCfwx_-105" value="Send Response" style="text;html=1;align=center;verticalAlign=middle;whiteSpace=wrap;rounded=0;" parent="1" vertex="1">
                    <mxGeometry x="250" y="580" width="120" height="30" as="geometry"/>
                </mxCell>
                <mxCell id="hqZc5M0iSS_VsKJCfwx_-106" value="&lt;font style=&quot;font-size: 18px;&quot;&gt;&lt;b&gt;Flow Authentication&lt;/b&gt;&lt;/font&gt;" style="text;html=1;strokeColor=none;fillColor=none;align=center;verticalAlign=middle;whiteSpace=wrap;rounded=0;" parent="1" vertex="1">
                    <mxGeometry x="-113.5" y="650" width="190" height="30" as="geometry"/>
                </mxCell>
            </root>
        </mxGraphModel>
    </diagram>
</mxfile>